<svg width="100px" height="100px" viewBox="0 0 40 40" xmlns="http://www.w3.org/2000/svg" color="#ffffff">
    <path stroke="currentColor" fill="#fc7200" d="M7 20v2q2 2 2 5q2 -3 1 -6v-1 Z" stroke-linejoin="round" />
    <path stroke="currentColor" fill="#fc7200" d="M14 20q2 4 1 6q-1 2 0 5q1 0 1 -2q1 -2 2 -5q-1 -2 0 -4 Z"
        stroke-linejoin="round" />
    <path stroke="currentColor" fill="#fc7200" d="M22 20c4 5 1 5 0 7q1 5 3 7q1 -3 0 -5c-1 -2 3 -6 2 -9Z"
        stroke-linejoin="round" />
    <path stroke="currentColor" fill="#fc7200" d="M30 20c1 3 -4 6 0 7q 1 -2 2 -3c1 -1 1 -2 1 -4Z"
        stroke-linejoin="round" />
    <path stroke="currentColor" fill="#fc7200" d="M5 20V5L13 12L20 5L27 12L35 5V20 Z" stroke-linejoin="round" />
</svg>